HIERARCHY
ROOT hip
{
	OFFSET 0.000000 0.000000 0.000000
	CHANNELS 6 Xposition Yposition Zposition Xrotation Zrotation Yrotation 
	JOINT abdomen
	{
		OFFSET 0.000000 3.422050 0.000000
		CHANNELS 3 Xrotation Zrotation Yrotation 
		JOINT chest
		{
			OFFSET 0.000000 8.486693 -0.684411
			CHANNELS 3 Xrotation Zrotation Yrotation 
			JOINT neck
			{
				OFFSET 0.000000 10.266162 -0.273764
				CHANNELS 3 Xrotation Zrotation Yrotation 
				JOINT head
				{
					OFFSET 0.000000 3.148285 0.000000
					CHANNELS 3 Xrotation Zrotation Yrotation 
					End Site
					{
						OFFSET 0.000000 3.148289 0.000000
					}
				}
			}
			JOINT lCollar
			{
				OFFSET 3.422053 6.707223 -0.821293
				CHANNELS 3 Yrotation Zrotation Xrotation 
				JOINT lShldr
				{
					OFFSET 3.285171 0.000000 0.000000
					CHANNELS 3 Zrotation Yrotation Xrotation 
					JOINT lForeArm
					{
						OFFSET 10.129278 0.000000 0.000000
						CHANNELS 3 Yrotation Zrotation Xrotation 
						JOINT lHand
						{
							OFFSET 8.486692 0.000000 0.000000
							CHANNELS 3 Zrotation Yrotation Xrotation 
							End Site
							{
								OFFSET 4.106464 0.000000 0.000000
							}
						}
					}
				}
			}
			JOINT rCollar
			{
				OFFSET -3.558935 6.707223 -0.821293
				CHANNELS 3 Yrotation Zrotation Xrotation 
				JOINT rShldr
				{
					OFFSET -3.148289 0.000000 0.000000
					CHANNELS 3 Zrotation Yrotation Xrotation 
					JOINT rForeArm
					{
						OFFSET -10.266159 0.000000 0.000000
						CHANNELS 3 Yrotation Zrotation Xrotation 
						JOINT rHand
						{
							OFFSET -8.349810 0.000000 0.000000
							CHANNELS 3 Zrotation Yrotation Xrotation 
							End Site
							{
								OFFSET -4.106464 0.000000 0.000000
							}
						}
					}
				}
			}
		}
	}
	JOINT lThigh
	{
		OFFSET 5.338403 -1.642589 1.368821
		CHANNELS 3 Xrotation Zrotation Yrotation 
		JOINT lShin
		{
			OFFSET -2.053232 -20.121670 0.000000
			CHANNELS 3 Xrotation Zrotation Yrotation 
			JOINT lFoot
			{
				OFFSET 0.000000 -19.300380 -1.231939
				CHANNELS 3 Xrotation Yrotation Zrotation 
				End Site
				{
					OFFSET 0.000000 -2.463878 4.653993
				}
			}
		}
	}
	JOINT rThigh
	{
		OFFSET -5.338403 -1.642589 1.368821
		CHANNELS 3 Xrotation Zrotation Yrotation 
		JOINT rShin
		{
			OFFSET 2.053232 -20.121670 0.000000
			CHANNELS 3 Xrotation Zrotation Yrotation 
			JOINT rFoot
			{
				OFFSET 0.000000 -19.300380 -1.231939
				CHANNELS 3 Xrotation Yrotation Zrotation 
				End Site
				{
					OFFSET 0.000000 -2.463878 4.653993
				}
			}
		}
	}
}
MOTION
Frames: 13
Frame Time: 0.039918
0.000000 43.528500 0.000000 0.000000 0.000000 0.000000 0.000000 0.000000 0.000000 0.000000 0.000000 0.000000 0.000000 0.000000 0.000000 0.000000 0.000000 0.000000 0.000000 0.000000 0.000000 0.000000 0.000000 0.000000 0.000000 0.000000 0.000000 0.000000 0.000000 0.000000 0.000000 0.000000 0.000000 0.000000 0.000000 0.000000 0.000000 0.000000 0.000000 0.000000 0.000000 0.000000 0.000000 0.000000 0.000000 0.000000 0.000000 0.000000 0.000000 0.000000 0.000000 0.000000 0.000000 0.000000 0.000000 0.000000 0.000000 0.000000 0.000000 0.000000 
0.000000 7.510674 0.000000 -157.067062 -0.000003 -0.000001 65.629898 0.400167 0.002134 25.130190 3.635726 0.819574 30.999151 0.000000 0.000000 8.998567 0.000000 0.000000 -10.296397 -11.044876 -2.890761 -53.226204 -5.713223 3.943030 -60.003963 0.001412 -55.001442 -31.003683 10.398213 23.596907 10.292686 11.041474 -2.890077 53.221996 5.710244 3.941247 59.998520 -0.001988 -54.999470 30.999496 -10.400786 23.596376 -113.986061 28.917885 15.353157 42.568424 -68.505531 19.430552 11.793187 5.665889 -1.661001 -111.515511 -30.287054 -16.476053 55.352467 67.415085 -42.673080 11.793108 -5.669735 1.657884 
0.000000 7.510674 -0.045557 -156.843948 -0.000003 -0.000001 65.629898 0.400167 0.002134 25.130190 3.635726 0.819574 31.609449 0.000000 0.000000 7.347921 0.000000 0.000000 -10.464643 -11.353832 -2.887402 -52.952522 -5.695949 3.890916 -59.862476 0.120913 -55.000233 -31.154026 10.193095 23.721518 10.491149 11.379891 -2.894354 52.898346 5.691173 3.880817 59.824112 -0.144506 -54.999359 31.199324 -10.211447 23.707365 -114.277771 28.978571 15.299928 42.627605 -68.751518 19.375546 11.793187 5.665889 -1.661001 -111.798904 -30.352057 -16.423500 55.352467 67.415085 -42.673080 11.793108 -5.669735 1.657884 
0.000000 7.510674 -0.091114 -156.620850 -0.000003 -0.000001 65.629898 0.400167 0.002134 25.130190 3.635726 0.819574 32.220036 0.000000 0.000000 5.691693 0.000000 0.000000 -10.633081 -11.662843 -2.884966 -52.678818 -5.678422 3.838882 -59.720974 0.240417 -54.999306 -31.304739 9.988276 23.846600 10.689915 11.718353 -2.899833 52.574680 5.671758 3.820489 59.649673 -0.287030 -54.999668 31.399418 -10.022465 23.818962 -114.569733 29.039021 15.246309 42.688095 -68.997490 19.319229 11.793188 5.665889 -1.661001 -112.082603 -30.416843 -16.370527 55.352467 67.415085 -42.673084 11.793108 -5.669736 1.657884 
0.000000 7.510674 -0.136671 -156.397720 -0.000003 -0.000001 65.629906 0.400167 0.002134 25.130190 3.635726 0.819574 32.830860 0.000000 0.000000 4.030546 0.000000 0.000000 -10.801716 -11.971899 -2.883455 -52.405132 -5.660649 3.786930 -59.579483 0.359933 -54.998692 -31.455826 9.783764 23.972162 10.888995 12.056854 -2.906522 52.251019 5.652004 3.760268 59.475220 -0.429558 -55.000404 31.599785 -9.833849 23.931175 -114.861969 29.099236 15.192303 42.750008 -69.243507 19.261528 11.793188 5.665890 -1.661001 -112.366585 -30.481409 -16.317148 55.352486 67.415092 -42.673073 11.793109 -5.669736 1.657884 
0.000000 7.510674 -0.182228 -156.174576 -0.000003 -0.000001 65.629898 0.400167 0.002134 25.130190 3.635726 0.819574 33.441895 0.000000 0.000000 2.365165 0.000000 0.000000 -10.970558 -12.280993 -2.882873 -52.131447 -5.642627 3.735063 -59.437973 0.479451 -54.998356 -31.607279 9.579560 24.098206 11.088398 12.395374 -2.914424 51.927364 5.631909 3.700158 59.300755 -0.572095 -55.001579 31.800436 -9.645603 24.044004 -115.154449 29.159225 15.137918 42.813286 -69.489479 19.202412 11.793187 5.665889 -1.661001 -112.650841 -30.545753 -16.263361 55.352467 67.415085 -42.673080 11.793108 -5.669735 1.657884 
0.000000 7.510674 -0.227785 -155.951431 -0.000002 -0.000001 65.629898 0.400167 0.002134 25.130190 3.635726 0.819574 34.053104 0.000000 0.000000 0.696234 0.000000 0.000000 -11.139612 -12.590116 -2.883224 -51.857769 -5.624358 3.683280 -59.296459 0.598975 -54.998322 -31.759117 9.375676 24.224733 11.288134 12.733906 -2.923546 51.603718 5.611477 3.640160 59.126278 -0.714632 -55.003185 32.001358 -9.457735 24.157448 -115.447182 29.218958 15.083136 42.878044 -69.735428 19.141811 11.793186 5.665888 -1.661001 -112.935349 -30.609859 -16.209164 55.352459 67.415085 -42.673073 11.793108 -5.669735 1.657884 
0.000000 7.510674 -0.273342 -155.728271 -0.000002 -0.000000 65.629898 0.400167 0.002134 25.130190 3.635726 0.819574 34.664448 0.000000 0.000000 -0.975545 0.000000 0.000000 -11.308890 -12.899261 -2.884511 -51.584103 -5.605842 3.631586 -59.154938 0.718495 -54.998581 -31.911324 9.172111 24.351736 11.488214 13.072436 -2.933893 51.280064 5.590703 3.580275 58.951786 -0.857166 -55.005234 32.202579 -9.270253 24.271507 -115.740166 29.278456 15.027975 42.944359 -69.981407 19.079699 11.793187 5.665889 -1.661001 -113.220139 -30.673735 -16.154552 55.352467 67.415085 -42.673080 11.793108 -5.669735 1.657884 
0.000000 7.510674 -0.318899 -155.505112 -0.000002 -0.000000 65.629898 0.400167 0.002134 25.130190 3.635726 0.819574 35.275902 0.000000 0.000000 -2.649466 0.000000 0.000000 -11.478396 -13.208419 -2.886738 -51.310463 -5.587080 3.579981 -59.013416 0.838024 -54.999134 -32.063915 8.968874 24.479225 11.688652 13.410954 -2.945470 50.956448 5.569594 3.520510 58.777283 -0.999698 -55.007717 32.404076 -9.083158 24.386179 -116.033401 29.337715 14.972436 43.012203 -70.227310 19.015989 11.793187 5.665889 -1.661001 -113.505211 -30.737389 -16.099545 55.352467 67.415085 -42.673080 11.793109 -5.669736 1.657884 
0.000000 7.510674 -0.364456 -155.281952 -0.000002 -0.000000 65.629898 0.400167 0.002134 25.130192 3.635727 0.819574 35.887421 0.000000 0.000000 -4.324820 0.000000 0.000000 -11.648139 -13.517581 -2.889909 -51.036823 -5.568070 3.528466 -58.871880 0.957547 -54.999981 -32.216881 8.765967 24.607189 11.889455 13.749446 -2.958283 50.632839 5.548148 3.460865 58.602749 -1.142224 -55.010624 32.605839 -8.896455 24.501451 -116.326866 29.396715 14.916509 43.081741 -70.473236 18.950636 11.793188 5.665889 -1.661001 -113.790543 -30.800804 -16.044127 55.352467 67.415085 -42.673080 11.793110 -5.669736 1.657884 
0.000000 7.510674 -0.410013 -155.058777 -0.000002 -0.000000 65.629898 0.400167 0.002134 25.130190 3.635726 0.819574 36.498974 0.000000 0.000000 -6.000891 0.000000 0.000000 -11.818123 -13.826735 -2.894027 -50.763222 -5.548819 3.477045 -58.730339 1.077068 -55.001137 -32.370216 8.563395 24.735634 12.090636 14.087899 -2.972339 50.309273 5.526368 3.401345 58.428211 -1.284741 -55.013977 32.807896 -8.710155 24.617340 -116.620575 29.455475 14.860208 43.152946 -70.719093 18.883570 11.793187 5.665889 -1.661001 -114.076134 -30.863979 -15.988301 55.352493 67.415100 -42.673080 11.793108 -5.669735 1.657884 
0.000000 7.510674 -0.455570 -154.835617 -0.000001 -0.000000 65.629898 0.400167 0.002134 25.130190 3.635726 0.819574 37.110527 0.000000 0.000000 -7.676962 0.000000 0.000000 -11.988361 -14.135880 -2.899097 -50.489643 -5.529322 3.425718 -58.588791 1.196591 -55.002571 -32.523937 8.361164 24.864557 12.292201 14.426302 -2.987642 49.985737 5.504253 3.341952 58.253647 -1.427248 -55.017754 33.010231 -8.524257 24.733829 -116.914536 29.513983 14.803527 43.225941 -70.964966 18.814756 11.793186 5.665888 -1.661001 -114.361969 -30.926908 -15.932074 55.352467 67.415085 -42.673080 11.793107 -5.669735 1.657884 
0.000000 7.510674 -0.501127 -154.612473 -0.000001 -0.000000 65.629898 0.400167 0.002134 25.130190 3.635726 0.819574 37.722054 0.000000 0.000000 -9.352316 0.000000 0.000000 -12.158859 -14.445004 -2.905123 -50.216106 -5.509583 3.374489 -58.447235 1.316102 -55.004311 -32.678036 8.159281 24.993969 12.494170 14.764646 -3.004201 49.662243 5.481805 3.282688 58.079052 -1.569740 -55.021969 33.212845 -8.338771 24.850927 -117.208710 29.572229 14.746470 43.300777 -71.210808 18.744085 11.793187 5.665888 -1.661001 -114.648087 -30.989607 -15.875444 55.352467 67.415085 -42.673080 11.793107 -5.669735 1.657884 
